<svg xmlns="http://www.w3.org/2000/svg" width="512" height="512" viewBox="0 0 512 512">
  <defs>
    <linearGradient id="accent" x1="0.5" y1="0" x2="0.5" y2="1">
      <stop offset="0%" stop-color="#34d399"/>
      <stop offset="100%" stop-color="#059669"/>
    </linearGradient>
  </defs>
  <!-- Shield fill (subtle) -->
  <path d="M256 80 L110 148 V280 C110 378 256 452 256 452 S402 378 402 280 V148 Z"
        fill="#10b981" fill-opacity="0.08"/>
  <!-- Shield stroke -->
  <path d="M256 80 L110 148 V280 C110 378 256 452 256 452 S402 378 402 280 V148 Z"
        fill="none" stroke="url(#accent)" stroke-width="26" stroke-linejoin="round"/>
  <!-- Lock shackle -->
  <path d="M224 253 V230 A32 32 0 0 1 288 230 V253"
        fill="none" stroke="url(#accent)" stroke-width="14" stroke-linecap="round"/>
  <!-- Lock body -->
  <rect x="202" y="253" width="108" height="82" rx="12" fill="url(#accent)"/>
  <!-- Keyhole -->
  <circle cx="256" cy="284" r="14" fill="#0d1117"/>
  <path d="M248 292 L256 323 L264 292 Z" fill="#0d1117"/>
</svg>
